<?xml version="1.0" encoding="UTF-8" standalone="no"?>
<svg
   width="73"
   height="73"
   viewBox="0 0 73 73"
   version="1.1"
   id="svg240"
   sodipodi:docname="photo_marker.svg"
   inkscape:version="1.2.2 (b0a8486541, 2022-12-01)"
   xmlns:inkscape="http://www.inkscape.org/namespaces/inkscape"
   xmlns:sodipodi="http://sodipodi.sourceforge.net/DTD/sodipodi-0.dtd"
   xmlns="http://www.w3.org/2000/svg"
   xmlns:svg="http://www.w3.org/2000/svg">
  <defs
     id="defs244" />
  <sodipodi:namedview
     id="namedview242"
     pagecolor="#ffffff"
     bordercolor="#999999"
     borderopacity="1"
     inkscape:showpageshadow="0"
     inkscape:pageopacity="0"
     inkscape:pagecheckerboard="0"
     inkscape:deskcolor="#d1d1d1"
     showgrid="false"
     inkscape:zoom="6.2263298"
     inkscape:cx="-14.133527"
     inkscape:cy="46.977916"
     inkscape:window-width="1872"
     inkscape:window-height="1011"
     inkscape:window-x="0"
     inkscape:window-y="0"
     inkscape:window-maximized="1"
     inkscape:current-layer="g1466" />
  <g
     id="g652">
    <g
       id="g1466">
      <g
         id="g1691"
         transform="matrix(0.98635747,0,0,0.98635747,0.60199846,0.38087589)">
        <path
           style="fill:#ffffff;stroke:#ffffff;stroke-width:0.954;stroke-dasharray:none;stroke-opacity:1"
           d="M 30.279072,71.313334 C 25.939111,70.550219 20.521753,68.330042 16.538891,65.68224 14.075179,64.044368 10.224312,60.330858 8.2194873,57.659582 5.2180956,53.660458 2.8829906,48.357469 1.7559058,42.980886 1.1887615,40.275412 1.1220241,33.51261 1.6343587,30.663975 2.7497916,24.462049 6.2000007,17.432486 10.302375,13.003489 l 1.501331,-1.620863 1.64438,1.669736 1.644379,1.669736 -1.31431,1.438065 c -3.086877,3.377535 -5.6572428,8.184574 -6.8917367,12.888767 -0.8071436,3.07572 -1.0919449,8.618263 -0.611637,11.903109 0.951771,6.5092 3.6887292,12.044961 8.3448707,16.878301 10.645732,11.050879 27.782685,12.334565 40.177965,3.009632 3.929525,-2.956169 6.549969,-6.106462 8.772198,-10.545921 2.453026,-4.900534 3.436798,-9.424594 3.203447,-14.731634 -0.32995,-7.503898 -2.470442,-12.904712 -7.652458,-19.30842 l -0.551693,-0.681756 1.636022,-1.561103 1.636022,-1.561103 1.202998,1.281247 c 2.700816,2.876488 5.638959,8.173558 6.973193,12.571706 2.046016,6.744459 2.051307,13.954013 0.01522,20.716887 -0.889432,2.954232 -3.617848,8.245356 -5.612523,10.884174 -5.233109,6.923048 -13.574552,11.964103 -22.19002,13.41028 -2.988296,0.501612 -9.095428,0.501101 -11.95094,-0.001 z"
           id="path1613" />
        <g
           id="g1473"
           transform="rotate(-26.220017,36.389952,36.61554)">
          <path
             style="fill:#dd55ff;stroke:#dd55ff;stroke-width:0.988;stroke-dasharray:none"
             d="m 33.999805,48.104368 c -2.046403,-0.251579 -3.747206,-0.468042 -3.779562,-0.481029 -0.03236,-0.01299 -1.389231,-1.697502 -3.015278,-3.743368 l -2.956448,-3.719757 0.513405,-4.490742 c 0.282373,-2.469908 0.513405,-4.644109 0.513405,-4.831558 0,-0.280764 6.190172,-5.460186 7.353349,-6.152672 0.266332,-0.158559 9.880484,0.737177 9.98907,0.930666 0.01368,0.02438 1.354032,1.718652 2.978559,3.765056 l 2.953686,3.720733 -0.539283,4.834057 -0.539282,4.834058 -3.648583,2.928162 c -4.222112,3.388447 -3.424389,3.193025 -9.823038,2.406394 z"
             id="path851" />
          <path
             style="fill:#dd55ff;stroke:#dd55ff;stroke-width:0.387934"
             d="M 50.037449,24.889079 C 43.545411,24.141633 37.425446,23.432013 36.437527,23.312147 l -1.796216,-0.21794 7.184864,-5.749434 c 3.951676,-3.162188 7.369242,-5.906507 7.594592,-6.098484 0.354791,-0.30225 0.666044,-0.181726 2.321368,0.898881 4.563319,2.978966 7.887091,6.627001 10.340893,11.349738 l 1.458351,2.806828 -0.850113,-0.02683 c -0.467561,-0.01476 -6.161779,-0.638378 -12.653817,-1.385825 z"
             id="path853" />
          <path
             style="fill:none;stroke:#dd55ff;stroke-width:5.37668;stroke-dasharray:none"
             id="path3131"
             sodipodi:type="arc"
             sodipodi:cx="-51.366619"
             sodipodi:cy="5.5786724"
             sodipodi:rx="32.884697"
             sodipodi:ry="32.884697"
             sodipodi:start="0.36448168"
             sodipodi:end="1.9366151"
             sodipodi:open="true"
             sodipodi:arc-type="arc"
             d="M -20.642162,17.300918 A 32.884697,32.884697 0 0 1 -37.950096,35.602 a 32.884697,32.884697 0 0 1 -25.17984,0.685428"
             transform="rotate(-128.60228)" />
          <path
             style="fill:#dd55ff;stroke:#dd55ff;stroke-width:0.401723;stroke-dasharray:none"
             d="m 25.605556,27.809819 c 0.192876,-1.865089 1.525787,-14.07359 1.777879,-16.284105 l 0.304843,-2.673071 1.558425,-0.3440477 c 4.223537,-0.9324182 7.291786,-1.1041416 11.029865,-0.6173157 2.391765,0.3114915 5.459079,1.1384708 7.359237,1.9841282 l 0.653576,0.2908712 -0.376569,0.327073 C 45.8255,12.306281 28.801564,25.912965 25.961568,28.038273 l -0.411484,0.30793 z"
             id="path3307" />
          <path
             style="fill:#000000;stroke-width:0.148448"
             d="m 66.790551,16.059805 c 0.126684,0.212285 0.548289,0.901445 0.936891,1.531478 6.155079,9.979153 6.980512,22.897586 2.163716,33.862857 C 63.452187,66.112252 48.329378,74.783684 32.315598,73 12.139077,70.752657 -2.2494228,52.730669 0.01421699,32.541833 0.92399514,24.42806 4.2221271,17.372155 10.037047,11.099353 11.255067,9.7854106 15.785495,6.1671593 17.344523,5.2628249 24.698443,0.99860276 32.388242,-0.67074852 40.473516,0.24184893 48.414482,1.1381547 55.430902,4.3514326 61.483979,9.8639105 62.527894,10.81459 66.262185,15.174835 66.79028,16.05966 Z M 61.496178,11.68368 C 57.709847,7.8701479 52.534092,4.6845566 47.427963,3.0249125 37.343377,-0.2528838 26.307744,1.1158792 17.442469,6.7440472 15.869828,7.7424484 12.779923,10.209366 11.458803,11.521302 1.699216,21.212989 -1.5633553,35.956918 3.2068584,48.812811 c 1.4156968,3.815366 3.0166002,6.642502 5.5785644,9.851551 2.5696582,3.2187 5.0144442,5.441964 8.3840642,7.624411 11.588683,7.505787 26.555821,7.587878 38.180372,0.20942 1.572346,-0.998016 4.662297,-3.464895 5.98375,-4.777154 C 69.878727,53.235369 73.525794,40.74791 70.907662,28.939771 70.08454,25.22736 68.343351,20.935685 66.418988,17.876079 65.511235,16.432804 62.698364,12.894514 61.496194,11.683667 Z m -0.03848,7.78497 c 5.337878,7.919132 6.691608,17.590626 3.736519,26.694798 -0.598801,1.844805 -2.062514,4.969362 -3.090705,6.597674 -1.926765,3.051348 -3.917141,5.258998 -6.850621,7.59844 C 51.452605,63.390322 47.7995,65.134752 43.0132,66.20436 34.216191,68.170253 25.066849,66.161867 17.903754,60.692455 14.067732,57.763462 10.851353,53.73373 8.8284805,49.322252 4.151616,39.12291 5.5020218,27.077486 12.325492,18.129453 15.211167,14.345287 19.357463,11.034636 23.694013,9.0520554 34.891155,3.9331411 48.12213,6.0713195 57.139428,14.456976 c 1.413581,1.314574 3.308919,3.51425 4.318213,5.011618 z m -4.122389,-3.010843 c -2.023159,-2.077168 -4.749238,-4.167118 -7.052671,-5.40694 l -0.532929,-0.286857 -7.713225,6.157889 c -4.242271,3.386836 -7.681887,6.197125 -7.643507,6.245198 0.03835,0.04804 6.636627,0.823399 14.662861,1.72306 L 63.648979,26.52588 63.50635,26.079933 c -0.395576,-1.236854 -1.766814,-3.84318 -3.057719,-5.811822 -0.658918,-1.004856 -2.10702,-2.777153 -3.113309,-3.810316 z m -2.931993,10.299455 c -5.364348,-0.601942 -9.792725,-1.063029 -9.84083,-1.024622 -0.04812,0.03839 4.017838,5.212047 9.035445,11.496979 6.900094,8.642898 9.155964,11.400771 9.258555,11.318875 0.350746,-0.280021 1.48399,-3.629523 1.941044,-5.737101 0.904589,-4.171248 0.875893,-8.454539 -0.08539,-12.745268 -0.25811,-1.152102 -0.488685,-2.121657 -0.512378,-2.154574 -0.0237,-0.03285 -4.432097,-0.552329 -9.796446,-1.154289 z M 47.333594,9.6690229 C 41.812221,7.4381138 35.588995,6.971334 29.662954,8.3436112 l -2.030934,0.470294 -1.097095,9.7767568 c -0.603386,5.377217 -1.065658,9.816117 -1.027247,9.864229 0.03841,0.04811 5.212053,-4.017841 11.496983,-9.035444 8.642895,-6.900094 11.400776,-9.155965 11.318866,-9.258563 -0.05952,-0.07456 -0.505027,-0.2959334 -0.989933,-0.4918611 z m 2.516678,24.9489161 c -0.04803,0.03831 -0.823402,6.636626 -1.723048,14.662853 -1.608067,14.346324 -1.628758,14.590911 -1.223667,14.460957 1.631853,-0.523474 4.485209,-2.090007 6.625767,-3.637631 3.322962,-2.402517 6.525835,-6.045486 8.437183,-9.596507 l 0.286858,-0.532948 -6.157883,-7.713216 c -3.386839,-4.242277 -6.197209,-7.681826 -6.24521,-7.643508 z m -12.136583,-9.732059 -4.954771,-0.557196 -3.770395,3.010119 -3.770402,3.010111 -0.557194,4.954773 -0.557205,4.954763 3.011548,3.772191 3.01155,3.7722 4.955129,0.553972 4.955127,0.553973 3.768607,-3.008682 3.768606,-3.008682 0.557206,-4.954772 0.557202,-4.954773 L 45.678578,29.21348 42.66846,25.443075 Z M 24.650942,10.015055 c -3.992402,1.759647 -7.683495,4.545476 -10.607472,8.005925 -0.912448,1.079857 -2.563669,3.498891 -3.217566,4.713749 l -0.286853,0.532941 6.157882,7.713219 c 3.386836,4.242269 6.196913,7.682067 6.244592,7.643999 0.168082,-0.134186 3.348005,-29.1633505 3.19647,-29.1803421 -0.08441,-0.00945 -0.753633,0.2472599 -1.487053,0.5705091 z M 35.78775,53.822892 c -8.642894,6.900096 -11.400767,9.155974 -11.318869,9.258554 0.280021,0.350748 3.629524,1.483994 5.737097,1.941047 4.195211,0.909782 8.270253,0.886873 12.633416,-0.07107 l 2.319451,-0.509208 1.09786,-9.783672 c 0.60383,-5.381024 1.066441,-9.823043 1.028032,-9.871156 -0.03841,-0.04812 -5.21205,4.017841 -11.496987,9.035456 z M 23.736583,48.35218 C 9.3902545,46.744115 9.14567,46.723421 9.2756183,47.128521 c 0.5213416,1.625189 2.0722077,4.448841 3.6356517,6.619368 2.37876,3.302462 6.054763,6.536152 9.598495,8.443576 l 0.532942,0.286861 7.71322,-6.157888 c 4.242271,-3.386839 7.681847,-6.197189 7.643509,-6.245203 C 38.361085,50.0272 31.76281,49.251839 23.736583,48.35218 Z M 9.9187509,24.707564 C 9.6689327,24.907003 8.7452954,27.505737 8.2602835,29.37378 8.0118207,30.330754 7.7036476,31.994316 7.5754576,33.070584 7.1375435,36.74714 7.2695458,39.437008 8.0658955,43.064355 l 0.5092185,2.319452 9.78367,1.097857 c 5.381027,0.603834 9.823037,1.066439 9.871145,1.028032 0.04812,-0.03838 -4.017841,-5.212056 -9.035446,-11.496987 C 11.709571,26.63729 10.04412,24.607474 9.9187509,24.707564 Z"
             id="path2750"
             sodipodi:nodetypes="ccsscccsscccsscssssssscccsscsccscscccscssccssccccscsscccsccsssccscsscscccccccccccccccccccsscsccccssccsscccccscsscsscscccss" />
        </g>
      </g>
    </g>
  </g>
</svg>
